<?xml version="1.0" encoding="UTF-8" standalone="no"?>
<svg
   class="svg-icon"
   style="overflow:hidden;fill:currentColor"
   viewBox="0 0 895.99438 895.99439"
   version="1.1"
   id="svg6525"
   sodipodi:docname="0.svg"
   width="895.99438"
   height="895.99438"
   inkscape:version="1.1.2 (0a00cf5339, 2022-02-04)"
   xmlns:inkscape="http://www.inkscape.org/namespaces/inkscape"
   xmlns:sodipodi="http://sodipodi.sourceforge.net/DTD/sodipodi-0.dtd"
   xmlns="http://www.w3.org/2000/svg"
   xmlns:svg="http://www.w3.org/2000/svg">
  <defs
     id="defs6529" />
  <sodipodi:namedview
     id="namedview6527"
     pagecolor="#ffffff"
     bordercolor="#666666"
     borderopacity="1.0"
     inkscape:pageshadow="2"
     inkscape:pageopacity="0.0"
     inkscape:pagecheckerboard="0"
     showgrid="false"
     fit-margin-top="127.1"
     fit-margin-left="0"
     fit-margin-right="0"
     fit-margin-bottom="0"
     inkscape:zoom="0.70214844"
     inkscape:cx="447.19889"
     inkscape:cy="509.8637"
     inkscape:window-width="1920"
     inkscape:window-height="1011"
     inkscape:window-x="0"
     inkscape:window-y="32"
     inkscape:window-maximized="1"
     inkscape:current-layer="svg6525" />
  <path
     d="m 416.19003,763.9 c 3.104,-76.672 95.84,-121.92 95.84,-156.8 a 64,64 0 1 0 -128,0 32,32 0 0 1 -64,0 128,128 0 1 1 256,0 c 0,70.72 -96.544,88.448 -95.84,160 h -0.16 a 32,32 0 1 1 -63.84,-3.2 z m -289.6,12.96 a 224.096,224.096 0 0 1 38.944,-418.08 c 26.176,-132.064 142.72,-231.68 282.496,-231.68 139.808,0 256.32,99.616 282.496,231.712 a 224.096,224.096 0 0 1 39.04,417.984 l -0.064,0.032 a 32.005652,32.005652 0 0 1 -27.456,-57.824 160,160 0 0 0 -70.016,-303.904 224,224 0 0 0 -448,0 160,160 0 0 0 -68.672,304.576 32.013473,32.013473 0 1 1 -28.8,57.184 z m 321.44,54.24 a 32,32 0 1 1 0,64 32,32 0 0 1 0,-64 z"
     fill="#333333"
     id="path6523" />
</svg>
