<?xml version="1.0" encoding="UTF-8" standalone="no"?>
<!-- Uploaded to: SVG Repo, www.svgrepo.com, Generator: SVG Repo Mixer Tools -->

<svg
   height="801.14111"
   width="801.14111"
   version="1.1"
   id="Capa_1"
   viewBox="0 0 60.085583 60.085583"
   xml:space="preserve"
   sodipodi:docname="1000.svg"
   inkscape:version="1.1.2 (0a00cf5339, 2022-02-04)"
   xmlns:inkscape="http://www.inkscape.org/namespaces/inkscape"
   xmlns:sodipodi="http://sodipodi.sourceforge.net/DTD/sodipodi-0.dtd"
   xmlns="http://www.w3.org/2000/svg"
   xmlns:svg="http://www.w3.org/2000/svg"><sodipodi:namedview
   id="namedview1208"
   pagecolor="#ffffff"
   bordercolor="#666666"
   borderopacity="1.0"
   inkscape:pageshadow="2"
   inkscape:pageopacity="0.0"
   inkscape:pagecheckerboard="0"
   showgrid="false"
   fit-margin-top="1.1411"
   fit-margin-left="0"
   fit-margin-right="0"
   fit-margin-bottom="0"
   inkscape:zoom="0.79888889"
   inkscape:cx="400.55633"
   inkscape:cy="401.80807"
   inkscape:window-width="1920"
   inkscape:window-height="1011"
   inkscape:window-x="0"
   inkscape:window-y="32"
   inkscape:window-maximized="1"
   inkscape:current-layer="Capa_1" /><defs
   id="defs43" />
<g
   id="g34"
   transform="translate(0,0.0855825)">
	<path
   style="fill:#f0c419"
   d="m 30,0 c -0.552,0 -1,0.448 -1,1 v 6 c 0,0.552 0.448,1 1,1 0.552,0 1,-0.448 1,-1 V 1 C 31,0.448 30.552,0 30,0 Z"
   id="path2" />
	<path
   style="fill:#f0c419"
   d="m 30,52 c -0.552,0 -1,0.448 -1,1 v 6 c 0,0.552 0.448,1 1,1 0.552,0 1,-0.448 1,-1 v -6 c 0,-0.552 -0.448,-1 -1,-1 z"
   id="path4" />
	<path
   style="fill:#f0c419"
   d="m 59,29 h -6 c -0.552,0 -1,0.448 -1,1 0,0.552 0.448,1 1,1 h 6 c 0.552,0 1,-0.448 1,-1 0,-0.552 -0.448,-1 -1,-1 z"
   id="path6" />
	<path
   style="fill:#f0c419"
   d="M 8,30 C 8,29.448 7.552,29 7,29 H 1 c -0.552,0 -1,0.448 -1,1 0,0.552 0.448,1 1,1 h 6 c 0.552,0 1,-0.448 1,-1 z"
   id="path8" />
	<path
   style="fill:#f0c419"
   d="m 46.264,14.736 c 0.256,0 0.512,-0.098 0.707,-0.293 l 5.736,-5.736 c 0.391,-0.391 0.391,-1.023 0,-1.414 -0.391,-0.391 -1.023,-0.391 -1.414,0 l -5.736,5.736 c -0.391,0.391 -0.391,1.023 0,1.414 0.195,0.196 0.451,0.293 0.707,0.293 z"
   id="path10" />
	<path
   style="fill:#f0c419"
   d="m 13.029,45.557 -5.736,5.736 c -0.391,0.391 -0.391,1.023 0,1.414 C 7.488,52.902 7.744,53 8,53 8.256,53 8.512,52.902 8.707,52.707 l 5.736,-5.736 c 0.391,-0.391 0.391,-1.023 0,-1.414 -0.391,-0.391 -1.023,-0.391 -1.414,0 z"
   id="path12" />
	<path
   style="fill:#f0c419"
   d="m 46.971,45.557 c -0.391,-0.391 -1.023,-0.391 -1.414,0 -0.391,0.391 -0.391,1.023 0,1.414 l 5.736,5.736 C 51.488,52.902 51.744,53 52,53 c 0.256,0 0.512,-0.098 0.707,-0.293 0.391,-0.391 0.391,-1.023 0,-1.414 z"
   id="path14" />
	<path
   style="fill:#f0c419"
   d="m 8.707,7.293 c -0.391,-0.391 -1.023,-0.391 -1.414,0 -0.391,0.391 -0.391,1.023 0,1.414 l 5.736,5.736 c 0.195,0.195 0.451,0.293 0.707,0.293 0.256,0 0.512,-0.098 0.707,-0.293 0.391,-0.391 0.391,-1.023 0,-1.414 z"
   id="path16" />
	<path
   style="fill:#f0c419"
   d="m 50.251,21.404 c 0.162,0.381 0.532,0.61 0.921,0.61 0.13,0 0.263,-0.026 0.39,-0.08 l 2.762,-1.172 c 0.508,-0.216 0.746,-0.803 0.53,-1.311 -0.216,-0.508 -0.804,-0.746 -1.311,-0.53 l -2.762,1.172 c -0.509,0.216 -0.746,0.803 -0.53,1.311 z"
   id="path18" />
	<path
   style="fill:#f0c419"
   d="M 9.749,38.596 C 9.533,38.088 8.946,37.85 8.438,38.066 l -2.762,1.172 c -0.508,0.216 -0.746,0.803 -0.53,1.311 0.162,0.381 0.532,0.61 0.921,0.61 0.13,0 0.263,-0.026 0.39,-0.08 l 2.762,-1.172 c 0.509,-0.216 0.746,-0.803 0.53,-1.311 z"
   id="path20" />
	<path
   style="fill:#f0c419"
   d="M 54.481,38.813 51.7,37.688 c -0.511,-0.207 -1.095,0.041 -1.302,0.553 -0.207,0.512 0.041,1.095 0.553,1.302 l 2.782,1.124 c 0.123,0.049 0.25,0.073 0.374,0.073 0.396,0 0.771,-0.236 0.928,-0.626 0.206,-0.511 -0.041,-1.094 -0.554,-1.301 z"
   id="path22" />
	<path
   style="fill:#f0c419"
   d="M 5.519,21.188 8.3,22.312 c 0.123,0.049 0.25,0.073 0.374,0.073 0.396,0 0.771,-0.236 0.928,-0.626 C 9.809,21.247 9.561,20.664 9.049,20.457 L 6.267,19.333 c -0.513,-0.207 -1.095,0.04 -1.302,0.553 -0.206,0.511 0.041,1.094 0.554,1.302 z"
   id="path24" />
	<path
   style="fill:#f0c419"
   d="m 39.907,50.781 c -0.216,-0.508 -0.803,-0.745 -1.311,-0.53 -0.508,0.216 -0.746,0.803 -0.53,1.311 l 1.172,2.762 c 0.162,0.381 0.532,0.61 0.921,0.61 0.13,0 0.263,-0.026 0.39,-0.08 0.508,-0.216 0.746,-0.803 0.53,-1.311 z"
   id="path26" />
	<path
   style="fill:#f0c419"
   d="m 21.014,9.829 c 0.13,0 0.263,-0.026 0.39,-0.08 0.508,-0.216 0.746,-0.803 0.53,-1.311 L 20.762,5.676 C 20.547,5.167 19.96,4.929 19.451,5.146 18.943,5.362 18.705,5.949 18.921,6.457 l 1.172,2.762 c 0.161,0.381 0.532,0.61 0.921,0.61 z"
   id="path28" />
	<path
   style="fill:#f0c419"
   d="m 21.759,50.398 c -0.511,-0.205 -1.095,0.04 -1.302,0.553 l -1.124,2.782 c -0.207,0.512 0.041,1.095 0.553,1.302 0.123,0.049 0.25,0.073 0.374,0.073 0.396,0 0.771,-0.236 0.928,-0.626 L 22.312,51.7 c 0.207,-0.512 -0.041,-1.095 -0.553,-1.302 z"
   id="path30" />
	<path
   style="fill:#f0c419"
   d="m 38.615,9.675 c 0.396,0 0.771,-0.236 0.928,-0.626 L 40.667,6.267 C 40.874,5.755 40.626,5.172 40.114,4.965 39.603,4.758 39.019,5.006 38.812,5.518 L 37.688,8.3 c -0.207,0.512 0.041,1.095 0.553,1.302 0.123,0.049 0.25,0.073 0.374,0.073 z"
   id="path32" />
</g>
<circle
   style="fill:#f0c419"
   cx="30"
   cy="30.085583"
   r="20"
   id="circle36" />
<circle
   style="fill:#ede21b"
   cx="30"
   cy="30.085583"
   r="15"
   id="circle38" />
</svg>
