<?xml version="1.0" encoding="UTF-8" standalone="no"?>
<!-- Generator: Adobe Illustrator 24.1.2, SVG Export Plug-In . SVG Version: 6.00 Build 0)  -->

<svg
   version="1.1"
   id="cloudy"
   x="0px"
   y="0px"
   viewBox="0 0 24 23.999999"
   enable-background="new 0 0 24 24"
   xml:space="preserve"
   sodipodi:docname="1001.svg"
   width="24"
   height="24"
   inkscape:version="1.1.2 (0a00cf5339, 2022-02-04)"
   xmlns:inkscape="http://www.inkscape.org/namespaces/inkscape"
   xmlns:sodipodi="http://sodipodi.sourceforge.net/DTD/sodipodi-0.dtd"
   xmlns="http://www.w3.org/2000/svg"
   xmlns:svg="http://www.w3.org/2000/svg"><defs
   id="defs6282" /><sodipodi:namedview
   id="namedview6280"
   pagecolor="#ffffff"
   bordercolor="#666666"
   borderopacity="1.0"
   inkscape:pageshadow="2"
   inkscape:pageopacity="0.0"
   inkscape:pagecheckerboard="0"
   showgrid="false"
   fit-margin-top="5.1177"
   fit-margin-left="0"
   fit-margin-right="0"
   fit-margin-bottom="0"
   inkscape:zoom="31.666667"
   inkscape:cx="12"
   inkscape:cy="14.778947"
   inkscape:window-width="1920"
   inkscape:window-height="1011"
   inkscape:window-x="0"
   inkscape:window-y="32"
   inkscape:window-maximized="1"
   inkscape:current-layer="g6277" />
<g
   id="g6277"
   transform="translate(0,2.8236)">
	<rect
   x="0"
   fill="none"
   width="24"
   height="24"
   id="rect6265"
   y="0" />
	<path
   fill-rule="evenodd"
   clip-rule="evenodd"
   fill="#e5e5e5"
   d="M 20.8403,6.4685 C 20.274,4.0722 18.213,2.2941 15.75,2.2941 c -2.8995,0 -5.25,2.4616 -5.25,5.5001 0,0.1964 0.0113,0.3896 0.03,0.5799 C 9.6345,8.7512 9,9.6665 9,10.7405 c 0,1.4097 1.0913,2.5535 2.4375,2.5535 h 9.3 C 22.5398,13.294 24,11.7635 24,9.8761 24,8.0252 22.5937,6.5268 20.8403,6.4685"
   id="path6267" />
	<g
   id="g6275">
		<g
   id="g6273">
			<path
   fill="#ffffff"
   d="m 3.6992,20.6764 c -1.7637,0 -3.1992,-1.4297 -3.1992,-3.187 0,-1.3047 0.7881,-2.4639 2.0088,-2.9531 l 0.3496,-0.1401 -0.0391,-0.375 c -0.0264,-0.2578 -0.043,-0.52 -0.043,-0.7856 0,-4.103 3.3496,-7.4414 7.4678,-7.4414 3.4375,0 6.4141,2.3223 7.2402,5.6479 l 0.0918,0.3672 0.3779,0.0117 c 2.417,0.0767 4.3105,2.0186 4.3105,4.4209 0,2.4453 -1.9971,4.4346 -4.4512,4.4346 H 3.6992 Z"
   id="path6269" />
			<path
   fill="#1d1d33"
   d="m 10.2441,6.2941 c 3.2066,0 5.9842,2.1664 6.7547,5.2684 l 0.1824,0.7346 0.7565,0.0239 c 2.1459,0.0677 3.827,1.7899 3.827,3.9207 0,2.1697 -1.7726,3.9348 -3.9514,3.9348 H 3.6993 C 2.2109,20.1764 1,18.9711 1,17.4894 1,16.3899 1.6649,15.413 2.694,15.0006 L 3.3945,14.72 3.3167,13.9694 c -0.027,-0.261 -0.0402,-0.5011 -0.0402,-0.7341 0,-3.8274 3.1256,-6.9412 6.9676,-6.9412 m 0,-1 c -4.4004,0 -7.9677,3.5543 -7.9677,7.9412 0,0.2836 0.0171,0.5627 0.0455,0.8372 C 0.963,14.6171 0,15.9387 0,17.4894 c 0,2.0353 1.6561,3.687 3.6993,3.687 h 14.1141 c 2.7352,0 4.9514,-2.2099 4.9514,-4.9348 0,-2.6729 -2.1342,-4.8361 -4.7954,-4.9202 -0.8595,-3.46 -3.9873,-6.0273 -7.7253,-6.0273 z"
   id="path6271" />
		</g>
	</g>
</g>
</svg>
