<?xml version="1.0" encoding="UTF-8" standalone="no"?>
<!-- Generator: Adobe Illustrator 24.1.2, SVG Export Plug-In . SVG Version: 6.00 Build 0)  -->

<svg
   version="1.1"
   id="mostly_x5F_clear_x5F_day"
   x="0px"
   y="0px"
   viewBox="0 0 20.000299 20.000299"
   enable-background="new 0 0 24 24"
   xml:space="preserve"
   sodipodi:docname="1100.svg"
   width="20.000299"
   height="20.000299"
   inkscape:version="1.1.2 (0a00cf5339, 2022-02-04)"
   xmlns:inkscape="http://www.inkscape.org/namespaces/inkscape"
   xmlns:sodipodi="http://sodipodi.sourceforge.net/DTD/sodipodi-0.dtd"
   xmlns="http://www.w3.org/2000/svg"
   xmlns:svg="http://www.w3.org/2000/svg"><defs
   id="defs6067" /><sodipodi:namedview
   id="namedview6065"
   pagecolor="#ffffff"
   bordercolor="#666666"
   borderopacity="1.0"
   inkscape:pageshadow="2"
   inkscape:pageopacity="0.0"
   inkscape:pagecheckerboard="0"
   showgrid="false"
   fit-margin-top="1"
   fit-margin-left="0"
   fit-margin-right="0"
   fit-margin-bottom="0"
   inkscape:zoom="29.958333"
   inkscape:cx="9.9805285"
   inkscape:cy="10.981919"
   inkscape:window-width="1920"
   inkscape:window-height="1011"
   inkscape:window-x="0"
   inkscape:window-y="32"
   inkscape:window-maximized="1"
   inkscape:current-layer="g6062" />
<g
   id="g6062"
   transform="translate(-1.9998,-1)">
	<rect
   fill="none"
   width="24"
   height="24"
   id="rect6052"
   x="0"
   y="0" />
	<circle
   fill-rule="evenodd"
   clip-rule="evenodd"
   fill="#ffd02f"
   cx="16"
   cy="8"
   r="6"
   id="circle6054" />
	<g
   id="g6060">
		<path
   fill-rule="evenodd"
   clip-rule="evenodd"
   fill="#ffffff"
   d="m 5.25,20.5005 c -1.5166,0 -2.75,-1.2334 -2.75,-2.75 0,-1.1265 0.6777,-2.127 1.7266,-2.5483 l 0.3506,-0.1406 -0.04,-0.3755 C 4.5137,14.4609 4.5,14.2329 4.5,14.0005 c 0,-3.584 2.916,-6.5 6.5,-6.5 2.9912,0 5.583,2.0288 6.3018,4.9331 l 0.0908,0.3677 0.3789,0.0117 c 2.0908,0.0664 3.7285,1.7515 3.7285,3.8374 0,2.123 -1.7275,3.8501 -3.8506,3.8501 z"
   id="path6056" />
		<path
   fill="#1d1d33"
   d="m 10.9998,8.0003 c 2.7609,0 5.1527,1.8724 5.8163,4.5533 l 0.182,0.7352 0.757,0.024 c 1.8195,0.0576 3.2447,1.5236 3.2447,3.3375 0,1.8472 -1.5028,3.35 -3.35,3.35 h -12.4 c -1.2407,0 -2.25,-1.0093 -2.25,-2.25 0,-0.921 0.5547,-1.7391 1.413,-2.0842 L 5.1119,15.385 5.0345,14.6355 c -0.0234,-0.2262 -0.0347,-0.434 -0.0347,-0.6353 0,-3.3083 2.6916,-5.9999 6,-5.9999 m 0,-1 c -3.866,0 -7,3.133 -7,7 0,0.25 0.015,0.496 0.04,0.738 -1.194,0.48 -2.04,1.645 -2.04,3.012 0,1.794 1.455,3.25 3.25,3.25 h 12.4 c 2.403,0 4.35,-1.948 4.35,-4.35 0,-2.356 -1.875,-4.263 -4.213,-4.337 -0.755,-3.05 -3.503,-5.313 -6.787,-5.313 z"
   id="path6058" />
	</g>
</g>
</svg>
