<?xml version="1.0" encoding="UTF-8" standalone="no"?>
<!-- Generator: Adobe Illustrator 24.1.2, SVG Export Plug-In . SVG Version: 6.00 Build 0)  -->

<svg
   version="1.1"
   id="partly_x5F_cloudy_x5F_day"
   x="0px"
   y="0px"
   viewBox="0 0 20 20"
   enable-background="new 0 0 24 24"
   xml:space="preserve"
   sodipodi:docname="1101.svg"
   width="20"
   height="20"
   inkscape:version="1.1.2 (0a00cf5339, 2022-02-04)"
   xmlns:inkscape="http://www.inkscape.org/namespaces/inkscape"
   xmlns:sodipodi="http://sodipodi.sourceforge.net/DTD/sodipodi-0.dtd"
   xmlns="http://www.w3.org/2000/svg"
   xmlns:svg="http://www.w3.org/2000/svg"><defs
   id="defs5920" /><sodipodi:namedview
   id="namedview5918"
   pagecolor="#ffffff"
   bordercolor="#666666"
   borderopacity="1.0"
   inkscape:pageshadow="2"
   inkscape:pageopacity="0.0"
   inkscape:pagecheckerboard="0"
   showgrid="false"
   fit-margin-top="6"
   fit-margin-left="0"
   fit-margin-right="0"
   fit-margin-bottom="0"
   inkscape:zoom="31.666667"
   inkscape:cx="10.010526"
   inkscape:cy="13.010526"
   inkscape:window-width="1920"
   inkscape:window-height="1011"
   inkscape:window-x="0"
   inkscape:window-y="32"
   inkscape:window-maximized="1"
   inkscape:current-layer="g5915" />
<g
   id="g5915"
   transform="translate(-1.9998,0.9997)">
	<rect
   fill="none"
   width="24"
   height="24"
   id="rect5905"
   x="0"
   y="0" />
	<circle
   fill-rule="evenodd"
   clip-rule="evenodd"
   fill="#ffd02f"
   cx="16.5"
   cy="9.4998999"
   r="4.5"
   id="circle5907" />
	<g
   id="g5913">
		<path
   fill-rule="evenodd"
   clip-rule="evenodd"
   fill="#ffffff"
   d="M 5.25,18.5 C 3.7334,18.5 2.5,17.2666 2.5,15.7505 2.5,14.624 3.1777,13.6235 4.2266,13.2022 L 4.5762,13.0616 4.5371,12.686 C 4.5137,12.4609 4.5,12.2324 4.5,12.0005 c 0,-3.584 2.916,-6.5 6.5,-6.5 2.9912,0 5.583,2.0288 6.3018,4.9331 l 0.0908,0.3677 0.3789,0.0117 C 19.8623,10.8794 21.5,12.5645 21.5,14.6504 21.5,16.773 19.7725,18.5 17.6494,18.5 Z"
   id="path5909" />
		<path
   fill="#1d1d33"
   d="m 10.9998,6.0003 c 2.7609,0 5.1527,1.8724 5.8163,4.5533 l 0.182,0.7352 0.7571,0.024 c 1.8194,0.0576 3.2446,1.5236 3.2446,3.3375 0,1.8472 -1.5028,3.35 -3.35,3.35 h -12.4 c -1.2407,0 -2.25,-1.0093 -2.25,-2.2499 0,-0.921 0.5547,-1.7391 1.413,-2.0842 L 5.1119,13.3852 5.0345,12.6357 C 5.0111,12.4094 4.9998,12.2016 4.9998,12.0004 c 0,-3.3085 2.6916,-6.0001 6,-6.0001 m 0,-1 c -3.866,0 -7,3.1331 -7,7.0001 0,0.2499 0.015,0.4958 0.04,0.738 -1.194,0.48 -2.04,1.6449 -2.04,3.012 0,1.794 1.455,3.2499 3.25,3.2499 h 12.4 c 2.403,0 4.35,-1.9479 4.35,-4.35 0,-2.3559 -1.875,-4.263 -4.213,-4.337 -0.755,-3.0499 -3.503,-5.313 -6.787,-5.313 z"
   id="path5911" />
	</g>
</g>
</svg>
