<?xml version="1.0" encoding="UTF-8" standalone="no"?>
<!-- Generator: Adobe Illustrator 24.1.2, SVG Export Plug-In . SVG Version: 6.00 Build 0)  -->

<svg
   version="1.1"
   id="fog"
   x="0px"
   y="0px"
   viewBox="0 0 21 21.000001"
   enable-background="new 0 0 24 24"
   xml:space="preserve"
   sodipodi:docname="2000.svg"
   width="21"
   height="21"
   inkscape:version="1.1.2 (0a00cf5339, 2022-02-04)"
   xmlns:inkscape="http://www.inkscape.org/namespaces/inkscape"
   xmlns:sodipodi="http://sodipodi.sourceforge.net/DTD/sodipodi-0.dtd"
   xmlns="http://www.w3.org/2000/svg"
   xmlns:svg="http://www.w3.org/2000/svg"><defs
   id="defs1047" /><sodipodi:namedview
   id="namedview1045"
   pagecolor="#ffffff"
   bordercolor="#666666"
   borderopacity="1.0"
   inkscape:pageshadow="2"
   inkscape:pageopacity="0.0"
   inkscape:pagecheckerboard="0"
   showgrid="false"
   fit-margin-top="1.1411"
   fit-margin-left="0"
   fit-margin-right="0"
   fit-margin-bottom="0"
   inkscape:zoom="29.958333"
   inkscape:cx="10.481224"
   inkscape:cy="11.115438"
   inkscape:window-width="1920"
   inkscape:window-height="1011"
   inkscape:window-x="0"
   inkscape:window-y="32"
   inkscape:window-maximized="1"
   inkscape:current-layer="g1042" />
<g
   id="g1042"
   transform="translate(-1.4998,-0.8592)">
	<rect
   fill="none"
   width="24"
   height="24"
   id="rect1022"
   x="0"
   y="0" />
	<g
   id="g1038">
		<linearGradient
   id="SVGID_1_"
   gradientUnits="userSpaceOnUse"
   x1="11.9998"
   y1="16.0002"
   x2="11.9998"
   y2="2.0002999">
			<stop
   offset="0.25"
   style="stop-color:#FFFFFF;stop-opacity:0"
   id="stop1024" />
			<stop
   offset="1"
   style="stop-color:#FFFFFF"
   id="stop1026" />
		</linearGradient>
		<path
   fill-rule="evenodd"
   clip-rule="evenodd"
   fill="url(#SVGID_1_)"
   d="m 10.9998,2.0003 c -3.866,0 -7,3.132 -7,7.0001 0,0.2499 0.015,0.4959 0.04,0.738 -1.194,0.4789 -2.04,1.644 -2.04,3.012 0,1.793 1.455,3.2499 3.25,3.2499 h 12.4 c 2.403,0 4.35,-1.9489 4.35,-4.35 0,-2.3569 -1.875,-4.263 -4.213,-4.337 -0.755,-3.05 -3.503,-5.313 -6.787,-5.313 z"
   id="path1029"
   style="fill:url(#SVGID_1_)" />
		<linearGradient
   id="SVGID_2_"
   gradientUnits="userSpaceOnUse"
   x1="11.9998"
   y1="16.0002"
   x2="11.9998"
   y2="2.0002999">
			<stop
   offset="0.25"
   style="stop-color:#1D1D33;stop-opacity:0"
   id="stop1031" />
			<stop
   offset="0.7"
   style="stop-color:#1D1D33"
   id="stop1033" />
		</linearGradient>
		<path
   fill="url(#SVGID_2_)"
   d="m 10.9998,3.0003 c 2.7609,0 5.1527,1.8724 5.8163,4.5533 l 0.182,0.7352 0.7571,0.024 c 1.8194,0.0576 3.2446,1.5236 3.2446,3.3375 0,1.8472 -1.5028,3.35 -3.35,3.35 h -12.4 c -1.2407,0 -2.25,-1.0093 -2.25,-2.2499 0,-0.9218 0.5544,-1.7397 1.4123,-2.0839 L 5.112,10.3858 5.0345,9.6356 C 5.0111,9.4094 4.9998,9.2015 4.9998,9.0004 c 0,-3.3085 2.6916,-6.0001 6,-6.0001 m 0,-1 c -3.866,0 -7,3.132 -7,7.0001 0,0.2499 0.015,0.4958 0.04,0.738 -1.194,0.4789 -2.04,1.644 -2.04,3.012 0,1.793 1.455,3.2499 3.25,3.2499 h 12.4 c 2.403,0 4.35,-1.949 4.35,-4.35 0,-2.3569 -1.875,-4.263 -4.213,-4.337 -0.755,-3.0499 -3.503,-5.313 -6.787,-5.313 z"
   id="path1036"
   style="fill:url(#SVGID_2_)" />
	</g>
	<path
   fill-rule="evenodd"
   clip-rule="evenodd"
   fill="#d5dee8"
   d="m 11.9968,21.8592 c -2.577,0 -3.886,-0.4191 -5.151,-0.823 -1.247,-0.4001 -2.425,-0.777 -4.846,-0.777 -0.276,0 -0.5,-0.223 -0.5,-0.4999 0,-0.276 0.224,-0.5001 0.5,-0.5001 2.578,0 3.886,0.4191 5.151,0.8241 1.247,0.399 2.425,0.7759 4.846,0.7759 2.423,0 3.601,-0.3769 4.849,-0.7759 1.266,-0.405 2.575,-0.8241 5.154,-0.8241 0.277,0 0.5,0.2241 0.5,0.5001 0,0.2769 -0.223,0.4999 -0.5,0.4999 -2.422,0 -3.601,0.3769 -4.849,0.777 -1.266,0.4039 -2.575,0.823 -5.154,0.823 m 0,-6 c -2.577,0 -3.886,-0.4191 -5.151,-0.823 -1.247,-0.4001 -2.425,-0.777 -4.846,-0.777 -0.276,0 -0.5,-0.223 -0.5,-0.4999 0,-0.276 0.224,-0.5001 0.5,-0.5001 2.578,0 3.886,0.4191 5.151,0.8241 1.247,0.399 2.425,0.7759 4.846,0.7759 2.423,0 3.601,-0.3769 4.849,-0.7759 1.266,-0.405 2.575,-0.8241 5.154,-0.8241 0.277,0 0.5,0.2241 0.5,0.5001 0,0.2769 -0.223,0.4999 -0.5,0.4999 -2.422,0 -3.601,0.3769 -4.849,0.777 -1.266,0.4039 -2.575,0.823 -5.154,0.823 m 0,3 c -2.577,0 -3.886,-0.4191 -5.151,-0.823 -1.247,-0.4001 -2.425,-0.777 -4.846,-0.777 -0.276,0 -0.5,-0.223 -0.5,-0.4999 0,-0.276 0.224,-0.5001 0.5,-0.5001 2.578,0 3.886,0.4191 5.151,0.8241 1.247,0.399 2.425,0.7759 4.846,0.7759 2.423,0 3.601,-0.3769 4.849,-0.7759 1.266,-0.405 2.575,-0.8241 5.154,-0.8241 0.277,0 0.5,0.2241 0.5,0.5001 0,0.2769 -0.223,0.4999 -0.5,0.4999 -2.422,0 -3.601,0.3769 -4.849,0.777 -1.266,0.4039 -2.575,0.823 -5.154,0.823"
   id="path1040" />
</g>
</svg>
