<?xml version="1.0" encoding="UTF-8" standalone="no"?>
<!-- Generator: Adobe Illustrator 24.1.2, SVG Export Plug-In . SVG Version: 6.00 Build 0)  -->

<svg
   version="1.1"
   id="rain"
   x="0px"
   y="0px"
   viewBox="0 0 20.0007 20.0007"
   enable-background="new 0 0 24 24"
   xml:space="preserve"
   sodipodi:docname="4001.svg"
   width="20.0007"
   height="20.0007"
   inkscape:version="1.1.2 (0a00cf5339, 2022-02-04)"
   xmlns:inkscape="http://www.inkscape.org/namespaces/inkscape"
   xmlns:sodipodi="http://sodipodi.sourceforge.net/DTD/sodipodi-0.dtd"
   xmlns="http://www.w3.org/2000/svg"
   xmlns:svg="http://www.w3.org/2000/svg"><defs
   id="defs4834" /><sodipodi:namedview
   id="namedview4832"
   pagecolor="#ffffff"
   bordercolor="#666666"
   borderopacity="1.0"
   inkscape:pageshadow="2"
   inkscape:pageopacity="0.0"
   inkscape:pagecheckerboard="0"
   showgrid="false"
   fit-margin-top="0.09"
   fit-margin-left="0"
   fit-margin-right="0"
   fit-margin-bottom="0"
   inkscape:zoom="31.666667"
   inkscape:cx="10.010526"
   inkscape:cy="10.105263"
   inkscape:window-width="1920"
   inkscape:window-height="1011"
   inkscape:window-x="0"
   inkscape:window-y="32"
   inkscape:window-maximized="1"
   inkscape:current-layer="rain" />
<rect
   fill-rule="evenodd"
   clip-rule="evenodd"
   fill="none"
   width="24"
   height="24"
   id="rect4821"
   x="-1.9998"
   y="-1.91" />
<g
   id="g4827"
   transform="translate(-1.9998,-1.91)">
	<path
   fill-rule="evenodd"
   clip-rule="evenodd"
   fill="#ffffff"
   d="M 5.25,15.5 C 3.7334,15.5 2.5,14.2666 2.5,12.75 2.5,11.6235 3.1777,10.623 4.2266,10.2017 L 4.5772,10.0611 4.5372,9.6856 C 4.5137,9.4609 4.5,9.2324 4.5,9 4.5,5.416 7.416,2.5 11,2.5 c 2.9912,0 5.583,2.0288 6.3018,4.9331 l 0.0908,0.3677 0.3789,0.0117 c 2.0908,0.0664 3.7285,1.752 3.7285,3.8374 0,2.123 -1.7275,3.8501 -3.8506,3.8501 z"
   id="path4823" />
	<path
   fill="#1d1d33"
   d="m 10.9998,3 c 2.761,0 5.1527,1.8724 5.8163,4.5532 l 0.182,0.7354 0.7571,0.0239 c 1.8194,0.0575 3.2446,1.5236 3.2446,3.3375 0,1.8472 -1.5028,3.35 -3.35,3.35 h -12.4 c -1.2407,0 -2.25,-1.0094 -2.25,-2.25 0,-0.921 0.5546,-1.739 1.413,-2.0841 L 5.1119,10.3849 5.0345,9.6353 C 5.0111,9.4091 4.9998,9.2013 4.9998,9 c 0,-3.3083 2.6916,-6 6,-6 m 0,-1 c -3.866,0 -7,3.1331 -7,7 0,0.25 0.015,0.496 0.04,0.738 -1.194,0.48 -2.04,1.645 -2.04,3.012 0,1.7939 1.455,3.25 3.25,3.25 h 12.4 c 2.403,0 4.35,-1.948 4.35,-4.35 0,-2.3561 -1.875,-4.2631 -4.213,-4.337 C 17.0318,4.2629 14.2838,2 10.9998,2 Z"
   id="path4825" />
</g>
<path
   fill-rule="evenodd"
   clip-rule="evenodd"
   fill="#0072f5"
   d="M 9.5344,17.13 C 9.4699,17.13 9.4055,17.1178 9.343,17.0919 9.0881,16.9864 8.967,16.6935 9.0725,16.4386 L 9.551,15.2838 c 0.1064,-0.2559 0.4014,-0.375 0.6533,-0.2705 0.2549,0.1055 0.376,0.3984 0.2705,0.6533 L 9.9963,16.8214 C 9.9162,17.0138 9.7307,17.13 9.5344,17.13 Z M 6.26,16.8214 6.7385,15.6666 C 6.844,15.4117 6.7229,15.1187 6.468,15.0133 6.2151,14.9088 5.9211,15.0279 5.8147,15.2838 l -0.4785,1.1548 c -0.1055,0.2549 0.0156,0.5479 0.2705,0.6533 0.0625,0.0259 0.127,0.0381 0.1914,0.0381 0.1962,0 0.3818,-0.1162 0.4619,-0.3086 z m 1.1464,2.8707 0.4785,-1.1548 C 7.9904,18.2824 7.8693,17.9894 7.6144,17.884 7.3605,17.779 7.0675,17.8991 6.9611,18.1545 l -0.4785,1.1548 c -0.1055,0.2549 0.0156,0.5479 0.2705,0.6533 0.0625,0.0259 0.127,0.0381 0.1914,0.0381 0.1963,-10e-5 0.3819,-0.1163 0.4619,-0.3086 z m -3.7431,-5e-4 0.4775,-1.1548 C 4.2463,18.2819 4.1252,17.9894 3.8703,17.884 3.6154,17.778 3.3215,17.8996 3.217,18.155 l -0.4775,1.1548 c -0.1055,0.2549 0.0156,0.5474 0.2705,0.6528 0.0625,0.0259 0.1279,0.0381 0.1914,0.0381 0.1963,-10e-5 0.3828,-0.1163 0.4619,-0.3091 z M 2.5246,16.8214 3.0031,15.6661 C 3.1086,15.4107 2.9875,15.1182 2.7326,15.0128 2.4767,14.9064 2.1857,15.0284 2.0793,15.2833 l -0.4785,1.1553 c -0.1055,0.2554 0.0156,0.5479 0.2705,0.6533 0.0625,0.0259 0.1279,0.0381 0.1914,0.0381 0.1963,0 0.3818,-0.1162 0.4619,-0.3086 z m 14.9434,0 0.4785,-1.1548 c 0.1055,-0.2549 -0.0156,-0.5479 -0.2705,-0.6533 -0.2529,-0.1045 -0.5469,0.0146 -0.6533,0.2705 l -0.4785,1.1548 c -0.1055,0.2549 0.0156,0.5479 0.2705,0.6533 0.0625,0.0259 0.127,0.0381 0.1914,0.0381 0.1962,0 0.3818,-0.1162 0.4619,-0.3086 z m -3.7364,0 0.4785,-1.1548 c 0.1055,-0.2549 -0.0156,-0.5479 -0.2705,-0.6533 -0.252,-0.1045 -0.5469,0.0146 -0.6533,0.2705 l -0.4785,1.1548 c -0.1055,0.2549 0.0156,0.5479 0.2705,0.6533 0.0625,0.0259 0.127,0.0381 0.1914,0.0381 0.1963,0 0.3819,-0.1162 0.4619,-0.3086 z m 1.1631,2.8702 0.4775,-1.1548 c 0.1055,-0.2549 -0.0156,-0.5474 -0.2705,-0.6528 -0.2549,-0.106 -0.5479,0.0156 -0.6533,0.271 l -0.4775,1.1548 c -0.1055,0.2549 0.0156,0.5474 0.2705,0.6528 0.0625,0.0259 0.1279,0.0381 0.1914,0.0381 0.1963,-10e-5 0.3828,-0.1163 0.4619,-0.3091 z m -3.7441,5e-4 0.4785,-1.1548 c 0.1055,-0.2549 -0.0156,-0.5479 -0.2705,-0.6533 -0.2529,-0.105 -0.5469,0.0151 -0.6533,0.2705 l -0.4785,1.1548 c -0.1055,0.2549 0.0156,0.5479 0.2705,0.6533 0.0625,0.0259 0.127,0.0381 0.1914,0.0381 0.1963,-10e-5 0.3818,-0.1163 0.4619,-0.3086 z"
   id="path4829" />
</svg>
