<?xml version="1.0" encoding="UTF-8" standalone="no"?>
<!-- Generator: Adobe Illustrator 24.1.2, SVG Export Plug-In . SVG Version: 6.00 Build 0)  -->

<svg
   version="1.1"
   id="rain_x5F_light"
   x="0px"
   y="0px"
   viewBox="0 0 20 19.999999"
   enable-background="new 0 0 24 24"
   xml:space="preserve"
   sodipodi:docname="4200.svg"
   width="20"
   height="20"
   inkscape:version="1.1.2 (0a00cf5339, 2022-02-04)"
   xmlns:inkscape="http://www.inkscape.org/namespaces/inkscape"
   xmlns:sodipodi="http://sodipodi.sourceforge.net/DTD/sodipodi-0.dtd"
   xmlns="http://www.w3.org/2000/svg"
   xmlns:svg="http://www.w3.org/2000/svg"><defs
   id="defs4604" /><sodipodi:namedview
   id="namedview4602"
   pagecolor="#ffffff"
   bordercolor="#666666"
   borderopacity="1.0"
   inkscape:pageshadow="2"
   inkscape:pageopacity="0.0"
   inkscape:pagecheckerboard="0"
   showgrid="false"
   fit-margin-top="1.958"
   fit-margin-left="0"
   fit-margin-right="0"
   fit-margin-bottom="0"
   inkscape:zoom="31.666667"
   inkscape:cx="10.010526"
   inkscape:cy="11.936842"
   inkscape:window-width="1920"
   inkscape:window-height="1011"
   inkscape:window-x="0"
   inkscape:window-y="32"
   inkscape:window-maximized="1"
   inkscape:current-layer="g4599" />
<g
   id="g4599"
   transform="translate(-1.9999,-0.042)">
	<rect
   fill="none"
   width="24"
   height="24"
   id="rect4589"
   x="0"
   y="0" />
	<path
   fill-rule="evenodd"
   clip-rule="evenodd"
   fill="#0072f5"
   d="m 11.5342,20.0402 c -0.064,0 -0.129,-0.012 -0.192,-0.0381 -0.255,-0.1059 -0.376,-0.399 -0.27,-0.6529 l 0.478,-1.155 c 0.106,-0.256 0.401,-0.375 0.654,-0.2711 0.255,0.1061 0.376,0.399 0.27,0.654 l -0.478,1.1541 c -0.08,0.1929 -0.266,0.309 -0.462,0.309 m -7.01,-0.309 0.479,-1.155 c 0.105,-0.255 -0.016,-0.5481 -0.271,-0.6531 -0.253,-0.1059 -0.547,0.015 -0.653,0.27 l -0.479,1.1561 c -0.105,0.255 0.016,0.5471 0.271,0.6529 0.062,0.0261 0.127,0.0381 0.191,0.0381 0.196,0 0.382,-0.1161 0.462,-0.309 m 14.943,0 0.479,-1.1541 c 0.105,-0.255 -0.016,-0.5479 -0.271,-0.654 -0.253,-0.1039 -0.547,0.015 -0.653,0.2711 l -0.478,1.155 c -0.106,0.2539 0.015,0.5471 0.27,0.6529 0.063,0.0261 0.128,0.0381 0.191,0.0381 0.196,0 0.383,-0.1161 0.462,-0.309 m -11.207,0 0.478,-1.1541 c 0.106,-0.255 -0.015,-0.5479 -0.27,-0.654 -0.253,-0.1039 -0.547,0.015 -0.653,0.2711 l -0.479,1.155 c -0.105,0.2539 0.016,0.5471 0.271,0.6529 0.062,0.0261 0.127,0.0381 0.191,0.0381 0.196,0 0.382,-0.1161 0.462,-0.309 m 7.472,0 0.478,-1.1541 c 0.106,-0.255 -0.016,-0.5479 -0.27,-0.654 -0.253,-0.1039 -0.548,0.015 -0.654,0.2711 l -0.478,1.155 c -0.106,0.2539 0.015,0.5471 0.27,0.6529 0.063,0.0261 0.128,0.0381 0.192,0.0381 0.195,0 0.382,-0.1161 0.462,-0.309"
   id="path4591" />
	<g
   id="g4597">
		<path
   fill-rule="evenodd"
   clip-rule="evenodd"
   fill="#ffffff"
   d="M 5.25,15.5 C 3.7334,15.5 2.5,14.2666 2.5,12.75 2.5,11.6235 3.1777,10.623 4.2266,10.2017 L 4.5772,10.0611 4.5372,9.6856 C 4.5137,9.4609 4.5,9.2324 4.5,9 4.5,5.416 7.416,2.5 11,2.5 c 2.9912,0 5.583,2.0288 6.3018,4.9331 l 0.0908,0.3677 0.3789,0.0117 c 2.0908,0.0664 3.7285,1.752 3.7285,3.8374 0,2.123 -1.7275,3.8501 -3.8506,3.8501 z"
   id="path4593" />
		<path
   fill="#1d1d33"
   d="m 10.9999,3 c 2.761,0 5.1527,1.8723 5.8163,4.5532 l 0.182,0.7352 0.757,0.024 c 1.8195,0.0576 3.2447,1.5237 3.2447,3.3375 0,1.8472 -1.5028,3.35 -3.35,3.35 h -12.4 c -1.2407,0 -2.25,-1.0094 -2.25,-2.25 0,-0.921 0.5546,-1.739 1.413,-2.0841 L 5.1121,10.3847 5.0346,9.6353 C 5.0113,9.4094 4.9999,9.2015 4.9999,9 c 0,-3.3083 2.6916,-6 6,-6 m 0,-1 c -3.866,0 -7,3.1331 -7,7 0,0.25 0.015,0.4961 0.04,0.738 -1.194,0.48 -2.04,1.645 -2.04,3.012 0,1.7939 1.455,3.25 3.25,3.25 h 12.4 c 2.403,0 4.35,-1.948 4.35,-4.35 0,-2.3561 -1.875,-4.2629 -4.213,-4.337 C 17.0319,4.2629 14.2839,2 10.9999,2 Z"
   id="path4595" />
	</g>
</g>
</svg>
