<?xml version="1.0" encoding="UTF-8" standalone="no"?>
<!-- Generator: Adobe Illustrator 24.1.2, SVG Export Plug-In . SVG Version: 6.00 Build 0)  -->

<svg
   version="1.1"
   id="rain_x5F_heavy"
   x="0px"
   y="0px"
   viewBox="0 0 20.20652 20.20652"
   enable-background="new 0 0 24 24"
   xml:space="preserve"
   sodipodi:docname="4201.svg"
   width="20.20652"
   height="20.20652"
   inkscape:version="1.1.2 (0a00cf5339, 2022-02-04)"
   xmlns:inkscape="http://www.inkscape.org/namespaces/inkscape"
   xmlns:sodipodi="http://sodipodi.sourceforge.net/DTD/sodipodi-0.dtd"
   xmlns="http://www.w3.org/2000/svg"
   xmlns:svg="http://www.w3.org/2000/svg"><defs
   id="defs4370" /><sodipodi:namedview
   id="namedview4368"
   pagecolor="#ffffff"
   bordercolor="#666666"
   borderopacity="1.0"
   inkscape:pageshadow="2"
   inkscape:pageopacity="0.0"
   inkscape:pagecheckerboard="0"
   showgrid="false"
   fit-margin-top="0"
   fit-margin-left="0.1"
   fit-margin-right="0.1"
   fit-margin-bottom="0"
   inkscape:zoom="31.666667"
   inkscape:cx="10.105263"
   inkscape:cy="10.010526"
   inkscape:window-width="1920"
   inkscape:window-height="1011"
   inkscape:window-x="0"
   inkscape:window-y="32"
   inkscape:window-maximized="1"
   inkscape:current-layer="g4365" />
<g
   id="g4365"
   transform="translate(-1.8994,-1.9994)">
	<rect
   fill="none"
   width="24"
   height="24"
   id="rect4355"
   x="0"
   y="0" />
	<path
   fill-rule="evenodd"
   clip-rule="evenodd"
   fill="#0072f5"
   d="m 17.2613,22.1666 v 0 c -0.2552,-0.1059 -0.3764,-0.3983 -0.2705,-0.6535 l 1.6271,-3.9261 c 0.1057,-0.2552 0.3981,-0.3764 0.6535,-0.2707 0.2552,0.1059 0.3762,0.3985 0.2705,0.6536 l -1.6271,3.9261 c -0.1057,0.2553 -0.3985,0.3763 -0.6535,0.2706 M 2.9718,21.897 4.5989,17.9711 C 4.7046,17.7159 4.5835,17.4233 4.3284,17.3176 4.0732,17.2119 3.7806,17.3329 3.6749,17.5881 l -1.6271,3.9261 c -0.1059,0.2552 0.0154,0.5478 0.2705,0.6535 0.2551,0.1057 0.5478,-0.0153 0.6535,-0.2707 m 3.7357,-2e-4 1.6271,-3.9261 C 8.4403,17.7155 8.3192,17.4229 8.0641,17.3172 7.8089,17.2115 7.5163,17.3326 7.4106,17.5877 L 5.7835,21.514 c -0.1057,0.2552 0.0154,0.5476 0.2705,0.6535 0.2552,0.1056 0.5478,-0.0153 0.6535,-0.2707 m 3.7357,-3e-4 1.6271,-3.9261 c 0.1059,-0.255 -0.0154,-0.5476 -0.2705,-0.6533 -0.2552,-0.1059 -0.5478,0.0154 -0.6535,0.2705 l -1.6271,3.9261 c -0.1057,0.2552 0.0154,0.5478 0.2705,0.6535 0.2551,0.1057 0.5478,-0.0154 0.6535,-0.2707 m 3.7357,0 1.6272,-3.9263 c 0.1057,-0.2552 -0.0155,-0.5478 -0.2705,-0.6535 -0.2554,-0.1057 -0.5479,0.0153 -0.6535,0.2705 l -1.6272,3.9263 c -0.1057,0.255 0.0155,0.5476 0.2705,0.6535 0.2552,0.1055 0.548,-0.0155 0.6535,-0.2705 m 1.868,-2e-4 0.3432,-0.8289 c 0.1059,-0.2552 -0.0152,-0.5476 -0.2705,-0.6535 -0.2552,-0.1057 -0.5476,0.0155 -0.6535,0.2705 l -0.3432,0.8289 c -0.1059,0.2552 0.0154,0.5476 0.2705,0.6535 0.2552,0.1055 0.5478,-0.0155 0.6535,-0.2705 m -3.7357,2e-4 0.3434,-0.8287 c 0.1055,-0.2552 -0.0155,-0.5478 -0.2707,-0.6535 -0.2552,-0.1059 -0.5478,0.0153 -0.6535,0.2705 l -0.3432,0.8289 c -0.1059,0.255 0.0154,0.5476 0.2705,0.6533 0.255,0.1057 0.5478,-0.0154 0.6535,-0.2705 m -3.7359,2e-4 0.3434,-0.8287 C 9.0244,20.813 8.9033,20.5204 8.6482,20.4145 8.393,20.3088 8.1004,20.43 7.9947,20.6852 l -0.3434,0.8287 c -0.1057,0.2552 0.0154,0.5478 0.2707,0.6535 0.255,0.1057 0.5476,-0.0154 0.6533,-0.2707 M 4.8396,21.8968 5.183,21.0683 C 5.2887,20.8131 5.1675,20.5205 4.9123,20.4148 4.6573,20.3089 4.3645,20.4302 4.2588,20.6853 l -0.3432,0.8289 c -0.1057,0.255 0.0154,0.5476 0.2705,0.6535 0.2554,0.1055 0.5478,-0.0155 0.6535,-0.2709 m 12.2207,-2.446 0.6138,-1.4808 c 0.1055,-0.2552 -0.0155,-0.5478 -0.2707,-0.6535 -0.2552,-0.1057 -0.5478,0.0155 -0.6533,0.2707 l -0.6138,1.4808 c -0.1057,0.255 0.0155,0.5478 0.2705,0.6533 0.2552,0.1059 0.548,-0.0154 0.6535,-0.2705 m -3.7357,3e-4 0.6136,-1.4808 c 0.1059,-0.2552 -0.0154,-0.5478 -0.2705,-0.6535 -0.2554,-0.1057 -0.5478,0.0153 -0.6535,0.2705 l -0.6136,1.4808 c -0.1059,0.2552 0.0154,0.5479 0.2705,0.6535 0.2554,0.1059 0.5478,-0.0153 0.6535,-0.2705 m -3.7357,2e-4 0.6136,-1.4808 C 10.3082,17.7153 10.1871,17.4227 9.932,17.317 9.6768,17.2113 9.3842,17.3325 9.2785,17.5875 l -0.6136,1.481 c -0.1059,0.255 0.0154,0.5478 0.2705,0.6535 0.2552,0.1057 0.5478,-0.0155 0.6535,-0.2707 m -3.7357,3e-4 0.6136,-1.4808 C 6.5725,17.7156 6.4513,17.423 6.1961,17.3173 5.9411,17.2116 5.6483,17.3327 5.5426,17.5878 l -0.6134,1.4808 c -0.1057,0.2552 0.0154,0.5479 0.2705,0.6535 0.2552,0.106 0.5478,-0.0153 0.6535,-0.2705"
   id="path4357" />
	<g
   id="g4363">
		<path
   fill-rule="evenodd"
   clip-rule="evenodd"
   fill="#ffffff"
   d="m 5.249,15.4995 c -1.5166,0 -2.75,-1.2334 -2.75,-2.75 0,-1.126 0.6777,-2.1265 1.7266,-2.5483 L 4.5742,10.0611 4.5361,9.687 C 4.5137,9.4614 4.499,9.2324 4.499,8.9995 c 0,-3.584 2.916,-6.5 6.5,-6.5 2.9912,0 5.583,2.0288 6.3018,4.9331 l 0.0908,0.3677 0.3789,0.0117 c 2.0908,0.0664 3.7285,1.7515 3.7285,3.8374 0,2.123 -1.7266,3.8501 -3.8496,3.8501 z"
   id="path4359" />
		<path
   fill="#1d1d33"
   d="m 10.9994,2.9994 c 2.7609,0 5.1527,1.8724 5.8163,4.5533 l 0.182,0.7352 0.7571,0.0239 c 1.8194,0.0575 3.2446,1.5236 3.2446,3.3374 0,1.8473 -1.5028,3.3501 -3.35,3.3501 h -12.4 c -1.2407,0 -2.25,-1.0093 -2.25,-2.2499 0,-0.921 0.5547,-1.7391 1.413,-2.0842 L 5.1115,10.3841 5.0341,9.6346 C 5.0108,9.4086 4.9994,9.2009 4.9994,8.9995 c 0,-3.3085 2.6916,-6.0001 6,-6.0001 m 0,-1 c -3.866,0 -7,3.1331 -7,7.0001 0,0.2499 0.015,0.4958 0.04,0.7379 -1.194,0.4801 -2.04,1.6449 -2.04,3.0121 0,1.7939 1.455,3.2499 3.25,3.2499 h 12.4 c 2.403,0 4.35,-1.9479 4.35,-4.3501 0,-2.3558 -1.875,-4.2629 -4.213,-4.3369 -0.755,-3.0499 -3.503,-5.313 -6.787,-5.313 z"
   id="path4361" />
	</g>
</g>
</svg>
