<?xml version="1.0" encoding="UTF-8" standalone="no"?>
<!-- Generator: Adobe Illustrator 24.1.2, SVG Export Plug-In . SVG Version: 6.00 Build 0)  -->

<svg
   version="1.1"
   id="snow"
   x="0px"
   y="0px"
   viewBox="0 0 20.4411 20.441099"
   enable-background="new 0 0 24 24"
   xml:space="preserve"
   sodipodi:docname="5000.svg"
   width="20.441099"
   height="20.441099"
   inkscape:version="1.1.2 (0a00cf5339, 2022-02-04)"
   xmlns:inkscape="http://www.inkscape.org/namespaces/inkscape"
   xmlns:sodipodi="http://sodipodi.sourceforge.net/DTD/sodipodi-0.dtd"
   xmlns="http://www.w3.org/2000/svg"
   xmlns:svg="http://www.w3.org/2000/svg"><defs
   id="defs2745" /><sodipodi:namedview
   id="namedview2743"
   pagecolor="#ffffff"
   bordercolor="#666666"
   borderopacity="1.0"
   inkscape:pageshadow="2"
   inkscape:pageopacity="0.0"
   inkscape:pagecheckerboard="0"
   showgrid="false"
   fit-margin-top="0"
   fit-margin-left="0.22"
   fit-margin-right="0.22"
   fit-margin-bottom="0"
   inkscape:zoom="29.958333"
   inkscape:cx="10.180807"
   inkscape:cy="9.9805285"
   inkscape:window-width="1920"
   inkscape:window-height="1011"
   inkscape:window-x="0"
   inkscape:window-y="32"
   inkscape:window-maximized="1"
   inkscape:current-layer="snow" />
<rect
   x="-1.7799"
   y="-1.9999"
   fill="none"
   width="24"
   height="24"
   id="rect2732" />
<g
   id="g2738"
   transform="translate(-1.7799,-1.9999)">
	<path
   fill-rule="evenodd"
   clip-rule="evenodd"
   fill="#ffffff"
   d="M 5.25,15.5 C 3.7334,15.5 2.5,14.2666 2.5,12.75 2.5,11.624 3.1777,10.6235 4.2266,10.2017 L 4.5772,10.0611 4.5372,9.6856 C 4.5137,9.4609 4.5,9.2324 4.5,9 4.5,5.416 7.416,2.5 11,2.5 c 2.9912,0 5.583,2.0288 6.3018,4.9331 l 0.0908,0.3677 0.3789,0.0117 c 2.0908,0.0664 3.7285,1.752 3.7285,3.8374 0,2.123 -1.7275,3.8501 -3.8506,3.8501 z"
   id="path2734" />
	<path
   fill="#1d1d33"
   d="m 10.9999,2.9999 c 2.7609,0 5.1527,1.8724 5.8163,4.5533 l 0.182,0.7352 0.757,0.024 c 1.8195,0.0577 3.2447,1.5237 3.2447,3.3376 0,1.8472 -1.5028,3.35 -3.35,3.35 h -12.4 c -1.2407,0 -2.25,-1.0094 -2.25,-2.2501 0,-0.921 0.5546,-1.7391 1.413,-2.0842 L 5.1121,10.3846 5.0346,9.6352 C 5.0113,9.4094 4.9999,9.2016 4.9999,9 c 0,-3.3084 2.6916,-6.0001 6,-6.0001 m 0,-1 c -3.866,0 -7,3.1331 -7,7.0001 0,0.2501 0.015,0.4961 0.04,0.738 -1.194,0.48 -2.04,1.6451 -2.04,3.012 0,1.794 1.455,3.2501 3.25,3.2501 h 12.4 c 2.403,0 4.35,-1.9481 4.35,-4.35 0,-2.3561 -1.875,-4.263 -4.213,-4.3372 -0.755,-3.0499 -3.503,-5.313 -6.787,-5.313 z"
   id="path2736" />
</g>
<path
   fill="#0072f5"
   d="m 4.5399,17.6602 -0.8167,0.4714 0.8167,0.4714 c 0.2393,0.1382 0.3213,0.4438 0.1826,0.6831 -0.0918,0.1602 -0.2607,0.25 -0.4326,0.25 -0.085,0 -0.1709,-0.0215 -0.25,-0.0669 L 3.2235,18.9979 v 0.943 c 0,0.2764 -0.2236,0.5 -0.5,0.5 -0.2764,0 -0.5,-0.2236 -0.5,-0.5 v -0.9435 l -0.8174,0.4719 c -0.0791,0.0454 -0.165,0.0669 -0.25,0.0669 -0.1719,0 -0.3408,-0.0898 -0.4326,-0.25 C 0.5848,19.0469 0.6669,18.7413 0.9061,18.6031 L 1.7228,18.1317 0.9061,17.6602 C 0.6668,17.522 0.5848,17.2164 0.7235,16.9771 0.8612,16.7383 1.1678,16.6568 1.4061,16.794 l 0.8174,0.4719 v -0.9435 c 0,-0.2764 0.2236,-0.5 0.5,-0.5 0.2764,0 0.5,0.2236 0.5,0.5 v 0.943 l 0.8164,-0.4713 c 0.2383,-0.1387 0.5449,-0.0566 0.6826,0.1831 0.1387,0.2392 0.0567,0.5448 -0.1826,0.683 z m 14.9942,0.9429 -0.8167,-0.4714 0.8167,-0.4714 c 0.2393,-0.1382 0.3213,-0.4438 0.1826,-0.6831 -0.1377,-0.2397 -0.4453,-0.3218 -0.6826,-0.1831 l -0.8174,0.4719 v -0.9435 c 0,-0.2764 -0.2236,-0.5 -0.5,-0.5 -0.2764,0 -0.5,0.2236 -0.5,0.5 v 0.943 l -0.8164,-0.4713 c -0.2383,-0.1372 -0.5449,-0.0557 -0.6826,0.1831 -0.1387,0.2393 -0.0566,0.5449 0.1826,0.6831 l 0.8167,0.4714 -0.8167,0.4714 c -0.2393,0.1382 -0.3213,0.4438 -0.1826,0.6831 0.0918,0.1602 0.2607,0.25 0.4326,0.25 0.085,0 0.1709,-0.0215 0.25,-0.0669 l 0.8164,-0.4713 v 0.943 c 0,0.2764 0.2236,0.5 0.5,0.5 0.2764,0 0.5,-0.2236 0.5,-0.5 v -0.9435 l 0.8174,0.4719 c 0.0791,0.0454 0.165,0.0669 0.25,0.0669 0.1719,0 0.3408,-0.0898 0.4326,-0.25 0.1386,-0.2395 0.0566,-0.5451 -0.1826,-0.6833 z m -7.3145,-1.626 C 12.0819,16.7374 11.7753,16.6553 11.537,16.794 l -0.8164,0.4713 v -0.943 c 0,-0.2764 -0.2236,-0.5 -0.5,-0.5 -0.2764,0 -0.5,0.2236 -0.5,0.5 v 0.9435 L 8.9032,16.7939 C 8.6649,16.6567 8.3583,16.7382 8.2206,16.977 8.0819,17.2163 8.164,17.5219 8.4032,17.6601 l 0.8167,0.4714 -0.8167,0.4714 c -0.2393,0.1382 -0.3213,0.4438 -0.1826,0.6831 0.0918,0.1602 0.2607,0.25 0.4326,0.25 0.085,0 0.1709,-0.0215 0.25,-0.0669 l 0.8174,-0.4719 v 0.9435 c 0,0.2764 0.2236,0.5 0.5,0.5 0.2764,0 0.5,-0.2236 0.5,-0.5 v -0.943 l 0.8164,0.4713 c 0.0791,0.0454 0.165,0.0669 0.25,0.0669 0.1719,0 0.3408,-0.0898 0.4326,-0.25 0.1387,-0.2393 0.0566,-0.5449 -0.1826,-0.6831 L 11.2203,18.1314 12.037,17.66 c 0.2392,-0.138 0.3213,-0.4436 0.1826,-0.6829 z"
   id="path2740" />
</svg>
