<?xml version="1.0" encoding="UTF-8" standalone="no"?>
<!-- Generator: Adobe Illustrator 25.1.0, SVG Export Plug-In . SVG Version: 6.00 Build 0)  -->

<svg
   version="1.1"
   id="flurries"
   x="0px"
   y="0px"
   viewBox="0 0 20.441 20.441"
   enable-background="new 0 0 24 24"
   xml:space="preserve"
   sodipodi:docname="5001.svg"
   width="20.441"
   height="20.441"
   inkscape:version="1.1.2 (0a00cf5339, 2022-02-04)"
   xmlns:inkscape="http://www.inkscape.org/namespaces/inkscape"
   xmlns:sodipodi="http://sodipodi.sourceforge.net/DTD/sodipodi-0.dtd"
   xmlns="http://www.w3.org/2000/svg"
   xmlns:svg="http://www.w3.org/2000/svg"><defs
   id="defs2864" /><sodipodi:namedview
   id="namedview2862"
   pagecolor="#ffffff"
   bordercolor="#666666"
   borderopacity="1.0"
   inkscape:pageshadow="2"
   inkscape:pageopacity="0.0"
   inkscape:pagecheckerboard="0"
   showgrid="false"
   fit-margin-top="0"
   fit-margin-left="0.22"
   fit-margin-right="0.22"
   fit-margin-bottom="0"
   inkscape:zoom="29.958333"
   inkscape:cx="10.214186"
   inkscape:cy="9.9805285"
   inkscape:window-width="1920"
   inkscape:window-height="1011"
   inkscape:window-x="0"
   inkscape:window-y="32"
   inkscape:window-maximized="1"
   inkscape:current-layer="flurries" />
<rect
   x="-1.7799"
   y="-1.9999"
   fill="none"
   width="24"
   height="24"
   id="rect2851" />
<g
   id="g2857"
   transform="translate(-1.7799,-1.9999)">
	<path
   fill-rule="evenodd"
   clip-rule="evenodd"
   fill="#ffffff"
   d="M 5.25,15.5 C 3.7334,15.5 2.5,14.2666 2.5,12.75 2.5,11.6235 3.1777,10.623 4.2266,10.2017 L 4.5772,10.0611 4.5372,9.6856 C 4.5137,9.4609 4.5,9.2324 4.5,9 4.5,5.416 7.416,2.5 11,2.5 c 2.9912,0 5.583,2.0288 6.3018,4.9331 l 0.0908,0.3677 0.3789,0.0117 c 2.0908,0.0664 3.7285,1.752 3.7285,3.8374 0,2.123 -1.7275,3.8501 -3.8506,3.8501 z"
   id="path2853" />
	<path
   fill="#1d1d33"
   d="m 10.9999,2.9999 c 2.7609,0 5.1527,1.8724 5.8163,4.5533 l 0.182,0.7352 0.757,0.024 c 1.8195,0.0577 3.2447,1.5237 3.2447,3.3376 0,1.8472 -1.5028,3.35 -3.35,3.35 h -12.4 c -1.2407,0 -2.25,-1.0094 -2.25,-2.2501 0,-0.921 0.5546,-1.7391 1.413,-2.0842 L 5.1121,10.3846 5.0346,9.6352 C 5.0113,9.4094 4.9999,9.2016 4.9999,9 c 0,-3.3084 2.6916,-6.0001 6,-6.0001 m 0,-1 c -3.866,0 -7,3.1331 -7,7.0001 0,0.2501 0.015,0.4961 0.04,0.738 -1.194,0.48 -2.04,1.6451 -2.04,3.012 0,1.794 1.455,3.2501 3.25,3.2501 h 12.4 c 2.403,0 4.35,-1.9481 4.35,-4.35 0,-2.3561 -1.875,-4.263 -4.213,-4.3372 -0.755,-3.0499 -3.503,-5.313 -6.787,-5.313 z"
   id="path2855" />
</g>
<path
   fill="#0072f5"
   d="m 12.0365,17.6603 -0.8164,0.4714 0.8164,0.4714 c 0.2393,0.1382 0.3213,0.4438 0.1826,0.6831 -0.1377,0.2407 -0.4443,0.3213 -0.6826,0.1831 l -0.8164,-0.4714 v 0.9431 c 0,0.2764 -0.2236,0.5 -0.5,0.5 -0.2764,0 -0.5,-0.2236 -0.5,-0.5 V 18.9979 L 8.9037,19.4693 C 8.6654,19.606 8.3588,19.5259 8.2211,19.2862 8.0824,19.0469 8.1645,18.7413 8.4037,18.6031 L 9.2201,18.1317 8.4037,17.6603 C 8.1644,17.5221 8.0824,17.2165 8.2211,16.9772 c 0.0918,-0.1606 0.2607,-0.25 0.4326,-0.25 0.085,0 0.1709,0.0215 0.25,0.0669 l 0.8164,0.4714 v -0.9431 c 0,-0.2764 0.2236,-0.5 0.5,-0.5 0.2764,0 0.5,0.2236 0.5,0.5 v 0.9431 l 0.8164,-0.4714 c 0.0791,-0.0454 0.165,-0.0669 0.25,-0.0669 0.1719,0 0.3408,0.0894 0.4326,0.25 0.1387,0.2392 0.0567,0.5449 -0.1826,0.6831 z"
   id="path2859" />
</svg>
