<?xml version="1.0" encoding="UTF-8" standalone="no"?>
<!-- Generator: Adobe Illustrator 24.1.2, SVG Export Plug-In . SVG Version: 6.00 Build 0)  -->

<svg
   version="1.1"
   id="snow_x5F_heavy"
   x="0px"
   y="0px"
   viewBox="0 0 23.294501 23.294501"
   enable-background="new 0 0 24 24.0001"
   xml:space="preserve"
   sodipodi:docname="5101.svg"
   width="23.2945"
   height="23.2945"
   inkscape:version="1.1.2 (0a00cf5339, 2022-02-04)"
   xmlns:inkscape="http://www.inkscape.org/namespaces/inkscape"
   xmlns:sodipodi="http://sodipodi.sourceforge.net/DTD/sodipodi-0.dtd"
   xmlns="http://www.w3.org/2000/svg"
   xmlns:svg="http://www.w3.org/2000/svg"><defs
   id="defs2626" /><sodipodi:namedview
   id="namedview2624"
   pagecolor="#ffffff"
   bordercolor="#666666"
   borderopacity="1.0"
   inkscape:pageshadow="2"
   inkscape:pageopacity="0.0"
   inkscape:pagecheckerboard="0"
   showgrid="false"
   fit-margin-top="0"
   fit-margin-left="1.64"
   fit-margin-right="1.64"
   fit-margin-bottom="0"
   inkscape:zoom="29.95821"
   inkscape:cx="11.616182"
   inkscape:cy="11.98336"
   inkscape:window-width="1920"
   inkscape:window-height="1011"
   inkscape:window-x="0"
   inkscape:window-y="32"
   inkscape:window-maximized="1"
   inkscape:current-layer="g2619" />
<rect
   x="-0.3599"
   y="9.9897385e-05"
   fill="none"
   width="24"
   height="24"
   id="rect2613" />
<g
   id="g2619"
   transform="translate(-0.3599)">
	<path
   fill-rule="evenodd"
   clip-rule="evenodd"
   fill="#ffffff"
   d="m 5.25,13.5001 c -1.5166,0 -2.75,-1.2334 -2.75,-2.75 0,-1.126 0.6777,-2.1265 1.7266,-2.5483 L 4.5772,8.0612 4.5372,7.6857 C 4.5137,7.461 4.5,7.2325 4.5,7.0001 c 0,-3.584 2.916,-6.5 6.5,-6.5 2.9912,0 5.583,2.0288 6.3018,4.9331 l 0.0908,0.3677 0.3789,0.0117 C 19.8623,5.879 21.5,7.5645 21.5,9.65 c 0,2.123 -1.7275,3.8501 -3.8506,3.8501 z"
   id="path2615" />
	<path
   fill="#1d1d33"
   d="m 10.9999,1 c 2.7609,0 5.1527,1.8724 5.8163,4.5533 l 0.182,0.7352 0.757,0.024 c 1.8195,0.0577 3.2447,1.5237 3.2447,3.3376 0,1.8472 -1.5028,3.35 -3.35,3.35 h -12.4 c -1.2407,0 -2.25,-1.0094 -2.25,-2.2501 0,-0.921 0.5546,-1.7391 1.413,-2.0842 L 5.1121,8.3847 5.0346,7.6353 C 5.0113,7.4094 4.9999,7.2017 4.9999,7.0001 4.9999,3.6917 7.6915,1 10.9999,1 m 0,-1 c -3.866,0 -7,3.1331 -7,7.0001 0,0.2501 0.015,0.4961 0.04,0.738 -1.194,0.48 -2.04,1.6451 -2.04,3.012 0,1.794 1.455,3.2501 3.25,3.2501 h 12.4 c 2.403,0 4.35,-1.9481 4.35,-4.35 0,-2.3561 -1.875,-4.263 -4.213,-4.3372 C 17.0319,2.2631 14.2839,0 10.9999,0 Z"
   id="path2617" />
</g>
<path
   fill="#0072f5"
   d="m 6.143,18.2862 c -0.0918,0.1602 -0.2607,0.25 -0.4326,0.25 -0.085,0 -0.1709,-0.0215 -0.25,-0.0669 L 4.643,17.9974 v 0.9435 c 0,0.2764 -0.2236,0.5 -0.5,0.5 -0.2764,0 -0.5,-0.2236 -0.5,-0.5 v -0.943 l -0.8164,0.4713 c -0.0791,0.0454 -0.165,0.0669 -0.25,0.0669 -0.1719,0 -0.3408,-0.0898 -0.4326,-0.25 C 2.0053,18.0468 2.0874,17.7412 2.3266,17.603 L 3.1433,17.1316 2.3266,16.6602 C 2.0873,16.522 2.0053,16.2164 2.144,15.9771 2.2817,15.7383 2.5883,15.6578 2.8266,15.794 l 0.8164,0.4713 v -0.943 c 0,-0.2764 0.2236,-0.5 0.5,-0.5 0.2764,0 0.5,0.2236 0.5,0.5 v 0.9435 l 0.8174,-0.4719 c 0.2383,-0.1377 0.5449,-0.0562 0.6826,0.1831 0.1387,0.2393 0.0566,0.5449 -0.1826,0.6831 l -0.8167,0.4714 0.8167,0.4714 c 0.2393,0.1384 0.3213,0.444 0.1826,0.6833 z m 14.8106,-0.6831 -0.8167,-0.4714 0.8167,-0.4714 c 0.2393,-0.1382 0.3213,-0.4438 0.1826,-0.6831 -0.1377,-0.2393 -0.4443,-0.3208 -0.6826,-0.1831 l -0.8164,0.4713 v -0.943 c 0,-0.2764 -0.2236,-0.5 -0.5,-0.5 -0.2764,0 -0.5,0.2236 -0.5,0.5 v 0.9435 L 17.8198,15.794 c -0.2373,-0.1362 -0.5449,-0.0557 -0.6826,0.1831 -0.1387,0.2393 -0.0566,0.5449 0.1826,0.6831 l 0.8167,0.4714 -0.8167,0.4714 c -0.2393,0.1382 -0.3213,0.4438 -0.1826,0.6831 0.0918,0.1602 0.2607,0.25 0.4326,0.25 0.085,0 0.1709,-0.0215 0.25,-0.0669 l 0.8174,-0.4719 v 0.9435 c 0,0.2764 0.2236,0.5 0.5,0.5 0.2764,0 0.5,-0.2236 0.5,-0.5 v -0.943 l 0.8164,0.4713 c 0.0791,0.0454 0.165,0.0669 0.25,0.0669 0.1719,0 0.3408,-0.0898 0.4326,-0.25 0.1387,-0.2391 0.0566,-0.5447 -0.1826,-0.6829 z m -7.4971,0 -0.8164,-0.4714 0.8164,-0.4714 c 0.2393,-0.1382 0.3213,-0.4438 0.1826,-0.6831 -0.1377,-0.2407 -0.4443,-0.3208 -0.6826,-0.1831 l -0.8164,0.4713 v -0.9431 c 0,-0.2764 -0.2236,-0.5 -0.5,-0.5 -0.2764,0 -0.5,0.2236 -0.5,0.5 v 0.9431 L 10.3237,15.794 C 10.0854,15.6578 9.7788,15.7369 9.6411,15.9771 9.5024,16.2164 9.5845,16.522 9.8237,16.6602 l 0.8164,0.4715 -0.8164,0.4714 c -0.2393,0.1382 -0.3213,0.4438 -0.1826,0.6831 0.0918,0.1606 0.2607,0.25 0.4326,0.25 0.085,0 0.1709,-0.0215 0.25,-0.0669 l 0.8164,-0.4714 v 0.9431 c 0,0.2764 0.2236,0.5 0.5,0.5 0.2764,0 0.5,-0.2236 0.5,-0.5 v -0.9431 l 0.8164,0.4714 c 0.0791,0.0454 0.165,0.0669 0.25,0.0669 0.1719,0 0.3408,-0.0894 0.4326,-0.25 0.1387,-0.2393 0.0567,-0.5449 -0.1826,-0.6831 z M 9.8911,19.8306 C 9.7544,19.5909 9.4477,19.5103 9.2085,19.6475 l -0.8164,0.4713 v -0.943 c 0,-0.2764 -0.2236,-0.5 -0.5,-0.5 -0.2764,0 -0.5,0.2236 -0.5,0.5 v 0.9435 L 6.5747,19.6474 C 6.3364,19.5117 6.0298,19.5917 5.8921,19.8305 5.7534,20.0698 5.8355,20.3754 6.0747,20.5136 l 0.8167,0.4714 -0.8167,0.4714 c -0.2393,0.1382 -0.3213,0.4438 -0.1826,0.6831 0.0918,0.1602 0.2607,0.25 0.4326,0.25 0.085,0 0.1709,-0.0215 0.25,-0.0669 L 7.3921,21.851 v 0.9435 c 0,0.2764 0.2236,0.5 0.5,0.5 0.2764,0 0.5,-0.2236 0.5,-0.5 v -0.943 l 0.8164,0.4713 c 0.0791,0.0454 0.165,0.0669 0.25,0.0669 0.1719,0 0.3408,-0.0898 0.4326,-0.25 0.1387,-0.2393 0.0566,-0.5449 -0.1826,-0.6831 L 8.8918,20.9852 9.7085,20.5138 c 0.2392,-0.1383 0.3212,-0.4439 0.1826,-0.6832 z m 7.497,0 c -0.1377,-0.2397 -0.4434,-0.3203 -0.6826,-0.1831 l -0.8174,0.4719 v -0.9435 c 0,-0.2764 -0.2236,-0.5 -0.5,-0.5 -0.2764,0 -0.5,0.2236 -0.5,0.5 v 0.943 l -0.8164,-0.4713 c -0.2393,-0.1357 -0.5449,-0.0557 -0.6826,0.1831 -0.1387,0.2393 -0.0566,0.5449 0.1826,0.6831 l 0.8167,0.4714 -0.8167,0.4714 c -0.2393,0.1382 -0.3213,0.4438 -0.1826,0.6831 0.0918,0.1602 0.2607,0.25 0.4326,0.25 0.085,0 0.1709,-0.0215 0.25,-0.0669 l 0.8164,-0.4713 v 0.943 c 0,0.2764 0.2236,0.5 0.5,0.5 0.2764,0 0.5,-0.2236 0.5,-0.5 V 21.851 l 0.8174,0.4719 c 0.0791,0.0454 0.165,0.0669 0.25,0.0669 0.1719,0 0.3408,-0.0898 0.4326,-0.25 0.1387,-0.2393 0.0566,-0.5449 -0.1826,-0.6831 l -0.8167,-0.4714 0.8167,-0.4714 c 0.2393,-0.1384 0.3213,-0.444 0.1826,-0.6833 z"
   id="path2621" />
</svg>
