<?xml version="1.0" encoding="UTF-8" standalone="no"?>
<!-- Generator: Adobe Illustrator 24.1.2, SVG Export Plug-In . SVG Version: 6.00 Build 0)  -->

<svg
   version="1.1"
   id="freezing_x5F_rain"
   x="0px"
   y="0px"
   viewBox="0 0 20 20"
   enable-background="new 0 0 24 24"
   xml:space="preserve"
   sodipodi:docname="6001.svg"
   width="20"
   height="20"
   inkscape:version="1.1.2 (0a00cf5339, 2022-02-04)"
   xmlns:inkscape="http://www.inkscape.org/namespaces/inkscape"
   xmlns:sodipodi="http://sodipodi.sourceforge.net/DTD/sodipodi-0.dtd"
   xmlns="http://www.w3.org/2000/svg"
   xmlns:svg="http://www.w3.org/2000/svg"><defs
   id="defs2371" /><sodipodi:namedview
   id="namedview2369"
   pagecolor="#ffffff"
   bordercolor="#666666"
   borderopacity="1.0"
   inkscape:pageshadow="2"
   inkscape:pageopacity="0.0"
   inkscape:pagecheckerboard="0"
   showgrid="false"
   fit-margin-top="2"
   fit-margin-left="0"
   fit-margin-right="0"
   fit-margin-bottom="0"
   inkscape:zoom="31.666667"
   inkscape:cx="10.010526"
   inkscape:cy="9.9789474"
   inkscape:window-width="1920"
   inkscape:window-height="1011"
   inkscape:window-x="0"
   inkscape:window-y="32"
   inkscape:window-maximized="1"
   inkscape:current-layer="g2366" />
<g
   id="g2366"
   transform="translate(-2.0001,-1.9997538)">
	<rect
   fill="none"
   width="24"
   height="24"
   id="rect2360"
   x="0"
   y="0" />
	<path
   fill-rule="evenodd"
   clip-rule="evenodd"
   fill="#d5dee8"
   d="m 11.7611,6.1546 c -0.064,0 -0.129,-0.0109 -0.192,-0.0379 -0.255,-0.105 -0.376,-0.3981 -0.27,-0.6531 l 0.478,-1.1539 c 0.106,-0.2561 0.399,-0.375 0.654,-0.2711 0.255,0.1061 0.376,0.399 0.27,0.654 l -0.478,1.1541 c -0.08,0.1919 -0.266,0.3079 -0.462,0.3079 m -3.274,-0.308 0.478,-1.1541 c 0.106,-0.255 -0.015,-0.5479 -0.27,-0.654 -0.255,-0.1039 -0.548,0.015 -0.653,0.2711 l -0.479,1.1539 c -0.105,0.255 0.016,0.5481 0.271,0.6531 0.062,0.027 0.127,0.0379 0.191,0.0379 0.196,1e-4 0.382,-0.1159 0.462,-0.3079 m 1.146,3.371 0.478,-1.155 c 0.106,-0.255 -0.015,-0.5479 -0.27,-0.654 -0.253,-0.104 -0.547,0.016 -0.653,0.271 l -0.478,1.155 c -0.106,0.255 0.015,0.5479 0.27,0.654 0.063,0.0249 0.127,0.0379 0.191,0.0379 0.197,10e-5 0.383,-0.1169 0.462,-0.3089 m -3.744,0 0.479,-1.155 c 0.105,-0.255 -0.016,-0.5479 -0.271,-0.654 -0.254,-0.105 -0.548,0.016 -0.653,0.271 l -0.479,1.155 c -0.105,0.255 0.016,0.5479 0.271,0.654 0.062,0.0249 0.127,0.0379 0.191,0.0379 0.196,10e-5 0.383,-0.1169 0.462,-0.3089 m -1.138,-3.371 0.479,-1.155 c 0.105,-0.255 -0.016,-0.5481 -0.271,-0.654 -0.254,-0.105 -0.548,0.0159 -0.653,0.2709 l -0.479,1.155 c -0.105,0.2561 0.016,0.5481 0.271,0.6531 0.062,0.027 0.127,0.0379 0.191,0.0379 0.196,1e-4 0.382,-0.1159 0.462,-0.3079 m 14.943,0 0.479,-1.1541 c 0.105,-0.255 -0.016,-0.5479 -0.271,-0.654 -0.254,-0.1039 -0.547,0.015 -0.653,0.2711 l -0.478,1.1539 c -0.106,0.255 0.015,0.5481 0.27,0.6531 0.063,0.027 0.128,0.0379 0.191,0.0379 0.196,1e-4 0.383,-0.1159 0.462,-0.3079 m -3.735,0 0.478,-1.1541 c 0.106,-0.255 -0.016,-0.5479 -0.27,-0.654 -0.255,-0.1039 -0.548,0.015 -0.654,0.2711 l -0.478,1.1539 c -0.106,0.255 0.015,0.5481 0.27,0.6531 0.063,0.027 0.128,0.0379 0.192,0.0379 0.195,1e-4 0.382,-0.1159 0.462,-0.3079 m 1.162,3.371 0.478,-1.155 c 0.106,-0.255 -0.015,-0.5479 -0.27,-0.654 -0.255,-0.105 -0.548,0.016 -0.654,0.271 l -0.478,1.155 c -0.106,0.255 0.015,0.5479 0.27,0.654 0.063,0.0249 0.128,0.0379 0.192,0.0379 0.196,10e-5 0.382,-0.1169 0.462,-0.3089 m -3.744,0 0.479,-1.155 c 0.105,-0.255 -0.016,-0.5479 -0.271,-0.654 -0.254,-0.105 -0.548,0.016 -0.653,0.271 l -0.479,1.155 c -0.105,0.255 0.016,0.5479 0.271,0.654 0.062,0.0249 0.127,0.0379 0.191,0.0379 0.196,10e-5 0.382,-0.1169 0.462,-0.3089"
   id="path2362" />
	<path
   fill-rule="evenodd"
   clip-rule="evenodd"
   fill="#0072f5"
   d="m 21.0001,11.9998 h -18 c -0.552,0 -1,1.0001 -1,1.0001 0,0 0.217,0.7189 0.535,0.8859 0.302,0.159 0.465,0.5 0.465,0.842 v 4.272 c 0,0.553 1,1 1,1 0,0 1,-0.447 1,-1 v -4 c 0,-0.552 1,-1 1,-1 0,0 1,0.448 1,1 v 2 c 0,0.553 1,1 1,1 0,0 1,-0.447 1,-1 v -2 c 0,-0.552 1,-1 1,-1 0,0 1,0.448 1,1 v 6 c 0,0.553 1,1 1,1 0,0 1,-0.447 1,-1 v -6 c 0,-0.552 1,-1 1,-1 0,0 1,0.448 1,1 v 2 c 0,0.553 1,1 1,1 0,0 1,-0.447 1,-1 v -2 c 0,-0.552 1,-1 1,-1 0,0 1,0.448 1,1 v 4 c 0,0.553 1,1 1,1 0,0 1,-0.447 1,-1 v -4.272 c 0,-0.342 0.162,-0.683 0.465,-0.842 0.318,-0.1669 0.535,-0.8859 0.535,-0.8859 0,0 -0.448,-1.0001 -1,-1.0001"
   id="path2364" />
</g>
</svg>
