<?xml version="1.0" encoding="UTF-8" standalone="no"?>
<!-- Generator: Adobe Illustrator 24.1.2, SVG Export Plug-In . SVG Version: 6.00 Build 0)  -->

<svg
   version="1.1"
   id="ice_x5F_pellets"
   x="0px"
   y="0px"
   viewBox="0 0 20.49329 20.49329"
   enable-background="new 0 0 24 24"
   xml:space="preserve"
   sodipodi:docname="7000.svg"
   width="20.49329"
   height="20.49329"
   inkscape:version="1.1.2 (0a00cf5339, 2022-02-04)"
   xmlns:inkscape="http://www.inkscape.org/namespaces/inkscape"
   xmlns:sodipodi="http://sodipodi.sourceforge.net/DTD/sodipodi-0.dtd"
   xmlns="http://www.w3.org/2000/svg"
   xmlns:svg="http://www.w3.org/2000/svg"><defs
   id="defs1630" /><sodipodi:namedview
   id="namedview1628"
   pagecolor="#ffffff"
   bordercolor="#666666"
   borderopacity="1.0"
   inkscape:pageshadow="2"
   inkscape:pageopacity="0.0"
   inkscape:pagecheckerboard="0"
   showgrid="false"
   fit-margin-top="0"
   fit-margin-left="1"
   fit-margin-right="1"
   fit-margin-bottom="0"
   inkscape:zoom="29.958333"
   inkscape:cx="10.047288"
   inkscape:cy="9.9805286"
   inkscape:window-width="1920"
   inkscape:window-height="1011"
   inkscape:window-x="0"
   inkscape:window-y="32"
   inkscape:window-maximized="1"
   inkscape:current-layer="ice_x5F_pellets" />
<rect
   fill="none"
   width="24"
   height="24"
   id="rect1621"
   x="-1.9499002"
   y="-1.9994091" />
<path
   fill-rule="evenodd"
   clip-rule="evenodd"
   fill="#0072f5"
   d="m 11.556,18.962291 -1.531,-3.696 -3.695,1.531 1.531,3.696 z m -3.998,-7.3751 -1.848,0.765 0.766,1.848 1.847,-0.7659 z m -4.71,1.734 -1.848,0.7661 0.766,1.847 1.847,-0.764 z m 12.692,-1.8309 -1.848,0.765 0.765,1.848 1.848,-0.765 z"
   id="path1623" />
<path
   fill-rule="evenodd"
   clip-rule="evenodd"
   fill="#d5dee8"
   d="m 18.522,2.983291 c 0.106,-0.255 0.4,-0.3769 0.654,-0.27 0.255,0.105 0.376,0.3981 0.27,0.6531 l -2.679,6.468 c -0.08,0.192 -0.266,0.3079 -0.462,0.3079 -0.064,0 -0.129,-0.0109 -0.191,-0.038 -0.255,-0.105 -0.376,-0.3981 -0.271,-0.6531 z m -6.18,-2.94390004 c 0.255,0.105 0.376,0.398 0.27,0.65290004 l -3.827,9.2381 c -0.079,0.1929 -0.266,0.309 -0.462,0.309 -0.064,0 -0.129,-0.012 -0.191,-0.0381 -0.255,-0.1059 -0.376,-0.3979 -0.271,-0.6529 l 3.827,-9.23890004 c 0.106,-0.2562 0.4,-0.3781 0.654,-0.2701 z M 6.213,3.891391 c 0.106,-0.255 0.4,-0.3772 0.653,-0.27 0.255,0.105 0.376,0.3979 0.271,0.6529 l -3.062,7.391 c -0.079,0.192 -0.266,0.3081 -0.462,0.3081 -0.064,0 -0.129,-0.0111 -0.191,-0.0381 -0.255,-0.105 -0.376,-0.3979 -0.271,-0.6529 z m 7.943,0.0968 c 0.105,-0.255 0.399,-0.3769 0.653,-0.27 0.255,0.105 0.376,0.3981 0.271,0.6531 l -3.827,9.2389 c -0.08,0.1931 -0.266,0.309 -0.462,0.309 -0.064,0 -0.129,-0.012 -0.191,-0.038 -0.255,-0.1061 -0.376,-0.399 -0.271,-0.654 z"
   id="path1625" />
</svg>
