<?xml version="1.0" encoding="UTF-8" standalone="no"?>
<!-- Generator: Adobe Illustrator 24.1.2, SVG Export Plug-In . SVG Version: 6.00 Build 0)  -->

<svg
   version="1.1"
   id="tstorm"
   x="0px"
   y="0px"
   viewBox="0 0 22.0002 22.000202"
   enable-background="new 0 0 24 24"
   xml:space="preserve"
   sodipodi:docname="8000.svg"
   width="22.0002"
   height="22.000202"
   inkscape:version="1.1.2 (0a00cf5339, 2022-02-04)"
   xmlns:inkscape="http://www.inkscape.org/namespaces/inkscape"
   xmlns:sodipodi="http://sodipodi.sourceforge.net/DTD/sodipodi-0.dtd"
   xmlns="http://www.w3.org/2000/svg"
   xmlns:svg="http://www.w3.org/2000/svg"><defs
   id="defs904" /><sodipodi:namedview
   id="namedview902"
   pagecolor="#ffffff"
   bordercolor="#666666"
   borderopacity="1.0"
   inkscape:pageshadow="2"
   inkscape:pageopacity="0.0"
   inkscape:pagecheckerboard="0"
   showgrid="false"
   fit-margin-top="0.53986"
   fit-margin-left="0"
   fit-margin-right="0"
   fit-margin-bottom="0"
   inkscape:zoom="31.666667"
   inkscape:cx="10.010526"
   inkscape:cy="11.557895"
   inkscape:window-width="1920"
   inkscape:window-height="1011"
   inkscape:window-x="0"
   inkscape:window-y="32"
   inkscape:window-maximized="1"
   inkscape:current-layer="g899" />
<g
   id="g899"
   transform="translate(-1.9998,-0.46024)">
	<rect
   fill="none"
   width="24"
   height="24"
   id="rect885"
   x="0"
   y="0" />
	<path
   fill-rule="evenodd"
   clip-rule="evenodd"
   fill="#0072f5"
   d="m 17.2667,22.1674 v 0 c -0.2552,-0.1059 -0.3764,-0.3983 -0.2705,-0.6535 l 1.6271,-3.9261 c 0.1057,-0.2552 0.3981,-0.3764 0.6535,-0.2707 0.2552,0.1059 0.3762,0.3985 0.2705,0.6536 l -1.6271,3.9261 c -0.1057,0.2552 -0.3985,0.3763 -0.6535,0.2706 M 2.9772,21.8977 4.6043,17.9717 C 4.71,17.7165 4.5889,17.4239 4.3338,17.3182 4.0786,17.2125 3.786,17.3336 3.6803,17.5887 l -1.6271,3.9261 c -0.1059,0.2552 0.0154,0.5478 0.2705,0.6535 0.2552,0.1058 0.5478,-0.0152 0.6535,-0.2706 M 6.7129,21.8975 8.34,17.9714 C 8.4457,17.7162 8.3246,17.4236 8.0695,17.3179 7.8143,17.2122 7.5217,17.3333 7.416,17.5884 l -1.6271,3.9263 c -0.1057,0.2552 0.0154,0.5476 0.2705,0.6535 0.2552,0.1056 0.5478,-0.0153 0.6535,-0.2707 m 7.4714,-3e-4 1.6272,-3.9263 c 0.1057,-0.2552 -0.0155,-0.5478 -0.2705,-0.6535 -0.2554,-0.1057 -0.5479,0.0154 -0.6535,0.2705 l -1.6272,3.9263 c -0.1057,0.255 0.0155,0.5476 0.2705,0.6535 0.2552,0.1055 0.548,-0.0155 0.6535,-0.2705 m 1.8679,-2e-4 0.3432,-0.8289 c 0.1059,-0.2552 -0.0152,-0.5476 -0.2705,-0.6535 -0.2552,-0.1057 -0.5476,0.0155 -0.6535,0.2705 l -0.3432,0.8289 c -0.1059,0.2552 0.0154,0.5476 0.2705,0.6535 0.2552,0.1056 0.5478,-0.0155 0.6535,-0.2705 m -7.4715,3e-4 0.3434,-0.8287 C 9.0298,20.8136 8.9087,20.521 8.6536,20.4151 8.3984,20.3094 8.1058,20.4306 8.0001,20.6858 l -0.3434,0.8287 c -0.1057,0.2552 0.0154,0.5478 0.2707,0.6535 0.255,0.1058 0.5475,-0.0153 0.6533,-0.2707 m -3.7358,2e-4 0.3434,-0.8285 C 5.294,20.8138 5.1728,20.5212 4.9176,20.4155 4.6626,20.3096 4.3698,20.4309 4.2641,20.686 l -0.3432,0.8289 c -0.1057,0.255 0.0154,0.5476 0.2705,0.6535 0.2554,0.1055 0.5478,-0.0155 0.6535,-0.2709 m 12.2208,-2.446 0.6138,-1.4808 c 0.1055,-0.2552 -0.0155,-0.5478 -0.2707,-0.6535 -0.2552,-0.1057 -0.5478,0.0155 -0.6533,0.2707 l -0.6138,1.4808 c -0.1057,0.255 0.0155,0.5478 0.2705,0.6533 0.2552,0.1059 0.548,-0.0154 0.6535,-0.2705 m -7.4714,5e-4 0.6136,-1.4808 C 10.3136,17.716 10.1925,17.4234 9.9374,17.3177 9.6822,17.212 9.3896,17.3332 9.2839,17.5882 l -0.6136,1.4809 c -0.1059,0.255 0.0154,0.5478 0.2705,0.6535 0.2552,0.1058 0.5478,-0.0154 0.6535,-0.2706 m -3.7357,3e-4 0.6136,-1.4808 C 6.5779,17.7163 6.4567,17.4237 6.2015,17.318 5.9465,17.2123 5.6537,17.3334 5.548,17.5885 l -0.6134,1.4808 c -0.1057,0.2552 0.0154,0.5479 0.2705,0.6535 0.2552,0.106 0.5478,-0.0153 0.6535,-0.2705"
   id="path887" />
	<path
   fill-rule="evenodd"
   clip-rule="evenodd"
   fill="#e5e5e5"
   d="M 20.8403,5.1745 C 20.274,2.778 18.213,1.0001 15.75,1.0001 c -2.8995,0 -5.25,2.4616 -5.25,5.4999 0,0.1964 0.0113,0.3898 0.03,0.5799 C 9.6345,7.4569 9,8.3723 9,9.4465 9,10.8559 10.0913,12 11.4375,12 h 9.3 C 22.5398,12 24,10.4695 24,8.5821 24,6.7309 22.5937,5.2327 20.8403,5.1745"
   id="path889" />
	<g
   id="g895">
		<path
   fill-rule="evenodd"
   clip-rule="evenodd"
   fill="#ffffff"
   d="M 5.25,15.5 C 3.7334,15.5 2.5,14.2666 2.5,12.7505 2.5,11.624 3.1777,10.6235 4.2266,10.2022 L 4.5762,10.0616 4.5371,9.686 C 4.5137,9.4609 4.5,9.2324 4.5,9.0005 c 0,-3.584 2.916,-6.5 6.5,-6.5 2.9912,0 5.583,2.0288 6.3018,4.9331 l 0.0908,0.3677 0.3789,0.0117 C 19.8623,7.8794 21.5,9.5645 21.5,11.6504 21.5,13.773 19.7725,15.5 17.6494,15.5 Z"
   id="path891" />
		<path
   fill="#1d1d33"
   d="m 10.9998,3.0003 c 2.7609,0 5.1527,1.8724 5.8163,4.5533 l 0.182,0.7353 0.7571,0.0239 c 1.8195,0.0575 3.2446,1.5235 3.2446,3.3374 0,1.8472 -1.5028,3.35 -3.35,3.35 h -12.4 c -1.2407,0 -2.25,-1.0093 -2.25,-2.2499 0,-0.921 0.5547,-1.7391 1.413,-2.0842 L 5.1119,10.3851 5.0345,9.6356 C 5.0111,9.4094 4.9998,9.2015 4.9998,9.0004 c 0,-3.3085 2.6916,-6.0001 6,-6.0001 m 0,-1 c -3.866,0 -7,3.1331 -7,7.0001 0,0.2499 0.015,0.4958 0.04,0.738 -1.194,0.48 -2.04,1.6449 -2.04,3.012 0,1.794 1.455,3.2499 3.25,3.2499 h 12.4 c 2.403,0 4.35,-1.9479 4.35,-4.35 0,-2.3558 -1.875,-4.263 -4.213,-4.3369 -0.755,-3.05 -3.503,-5.3131 -6.787,-5.3131 z"
   id="path893" />
	</g>
	<path
   fill-rule="evenodd"
   clip-rule="evenodd"
   fill="#ffd02f"
   d="m 12.6419,13.6998 h 2.9958 c 0.5208,0 0.8363,0.575 0.5569,1.0144 l -4.7331,7.4405 c -0.1627,0.2555 -0.4782,0.3676 -0.7657,0.2718 -0.123,-0.0492 -0.123,-0.0492 -0.2322,-0.1288 -0.1751,-0.1459 -0.2626,-0.3718 -0.2314,-0.5975 l 0.546,-3.9535 0.0994,-0.7466 H 8.3615 c -0.4046,0 -0.714,-0.3607 -0.6524,-0.7604 L 8.6239,10.2992 C 8.6735,9.9773 8.9505,9.7398 9.2763,9.7398 h 3.2486 c 0.408,0 0.7182,0.3665 0.6508,0.769 z"
   id="path897" />
</g>
</svg>
